HIERARCHY
ROOT Hips
{
	OFFSET -3.958830 18.904000 13.208200
	CHANNELS 6 Xposition Yposition Zposition Zrotation Yrotation Xrotation 
	JOINT LHipJoint
	{
		OFFSET 0.000000 0.000000 0.000000
		CHANNELS 3 Zrotation Yrotation Xrotation
		JOINT LeftUpLeg
		{
			OFFSET 1.800000 -1.400000 0.085000
			CHANNELS 3 Zrotation Yrotation Xrotation
			JOINT LeftLeg
			{
				OFFSET 2.215000 -6.000000 0.000000
				CHANNELS 3 Zrotation Yrotation Xrotation
				JOINT LeftFoot
				{
					OFFSET 2.500000 -6.900000 0.000000
					CHANNELS 3 Zrotation Yrotation Xrotation
					JOINT LeftToeBase
					{
						OFFSET 0.200000 -0.500000 1.950000
						CHANNELS 3 Zrotation Yrotation Xrotation
						End Site
						{
							OFFSET 0.000000 0.000000 0.000000
						}
					}
				}
			}
		}
	}
	JOINT RHipJoint
	{
		OFFSET 0.000000 0.000000 0.000000
		CHANNELS 3 Zrotation Yrotation Xrotation
		JOINT RightUpLeg
		{
			OFFSET -1.800000 -1.400000 0.085000
			CHANNELS 3 Zrotation Yrotation Xrotation
			JOINT RightLeg
			{
				OFFSET -2.215000 -6.000000 0.000000
				CHANNELS 3 Zrotation Yrotation Xrotation
				JOINT RightFoot
				{
					OFFSET -2.500000 -6.900000 0.000000
					CHANNELS 3 Zrotation Yrotation Xrotation
					JOINT RightToeBase
					{
						OFFSET -0.200000 -0.500000 1.950000
						CHANNELS 3 Zrotation Yrotation Xrotation
						End Site
						{
							OFFSET 0.000000 0.000000 0.000000
						}
					}
				}
			}
		}
	}
	JOINT LowerBack
	{
		OFFSET 0.000000 0.000000 0.000000
		CHANNELS 3 Zrotation Yrotation Xrotation
		JOINT Spine
		{
			OFFSET -0.087000 1.940000 -0.288900
			CHANNELS 3 Zrotation Yrotation Xrotation
			JOINT Spine1
			{
				OFFSET 0.000000 1.950000 0.060000
				CHANNELS 3 Zrotation Yrotation Xrotation
				JOINT Neck
				{
					OFFSET 0.000000 0.000000 0.000000
					CHANNELS 3 Zrotation Yrotation Xrotation
					JOINT Neck1
					{
						OFFSET 0.000000 1.600000 0.340000
						CHANNELS 3 Zrotation Yrotation Xrotation
						JOINT Head
						{
							OFFSET 0.000000 1.667000 -0.240000
							CHANNELS 3 Zrotation Yrotation Xrotation
							End Site
							{
								OFFSET 0.000000 0.000000 0.000000
							}
						}
					}
				}
				JOINT LeftShoulder
				{
					OFFSET 0.000000 0.000000 0.000000
					CHANNELS 3 Zrotation Yrotation Xrotation
					JOINT LeftArm
					{
						OFFSET 2.700000 1.550000 -0.730000
						CHANNELS 3 Zrotation Yrotation Xrotation
						JOINT LeftForeArm
						{
							OFFSET 5.450000 0.000000 0.000000
							CHANNELS 3 Zrotation Yrotation Xrotation
							JOINT LeftHand
							{
								OFFSET 3.450000 0.000000 0.000000
								CHANNELS 3 Zrotation Yrotation Xrotation
								JOINT LeftHandIndex1
								{
									OFFSET 0.750000 0.000000 0.000000
									CHANNELS 3 Zrotation Yrotation Xrotation
									End Site
									{
										OFFSET 0.000000 0.000000 0.000000
									}
								}
							}
						}
					}
				}
				JOINT RightShoulder
				{
					OFFSET 0.000000 0.000000 0.000000
					CHANNELS 3 Zrotation Yrotation Xrotation
					JOINT RightArm
					{
						OFFSET -2.700000 1.550000 -0.730000
						CHANNELS 3 Zrotation Yrotation Xrotation
						JOINT RightForeArm
						{
							OFFSET -5.450000 0.000000 0.000000
							CHANNELS 3 Zrotation Yrotation Xrotation
							JOINT RightHand
							{
								OFFSET -3.450000 0.000000 0.000000
								CHANNELS 3 Zrotation Yrotation Xrotation
								JOINT RightHandIndex1
								{
									OFFSET -0.750000 0.000000 0.000000
									CHANNELS 3 Zrotation Yrotation Xrotation
									End Site
									{
										OFFSET 0.000000 0.000000 0.000000
									}
								}
							}
						}
					}
				}
			}
		}
	}
}
MOTION
Frames: 7
Frame Time: 0.016667
-0.918350 17.142780 -2.453960 -7.041511 3.422908 -7.557192 -15.910424 15.408318 2.162543 20.179789 1.011588 5.191882 3.379482 11.412192 46.811338 0.819590 8.843396 0.947710 0.565410 0.591800 0.941360 17.444728 -8.681026 4.048829 -26.225851 8.518256 -28.687636 19.910992 -20.137726 54.366213 -2.020718 -9.428189 0.599649 0.048780 -1.056790 0.095810 -1.452819 -7.034320 -8.485737 4.246118 -0.194721 46.139710 3.437136 3.368848 -0.506795 5.690931 5.774539 -22.688235 15.074825 -10.944745 98.106392 6.572640 0.913020 -26.590210 -40.889909 -26.099992 12.256736 -47.970858 18.693764 -22.941166 -22.147206 -43.478370 1.067308 -2.449326 2.820934 1.199660 -0.873100 1.164260 -0.337970 30.399556 27.090804 16.998949 47.508131 -17.675031 -24.364366 82.647619 70.591484 36.852461 2.565614 -1.085178 0.167590 0.014230 -0.212740 -0.371220 
-1.235560 17.035090 -2.399860 -6.529667 0.842194 -8.171601 -15.966907 15.121944 2.245551 20.681833 -0.759258 -0.613545 5.373045 12.929355 60.022018 1.139969 10.621912 0.347045 0.571740 0.612240 0.962640 17.482926 -8.496624 4.016280 -23.269058 9.605767 -31.083915 15.480804 -20.188204 61.191693 -2.186879 -10.147065 0.423930 0.085620 -1.043610 0.096600 -1.376549 -6.912263 -8.553621 1.032341 2.105344 47.628320 5.281181 4.546374 0.185154 5.269225 7.607734 -21.919587 19.752454 -13.695917 92.913580 4.119920 2.484850 -27.184070 -38.822300 -27.091569 11.619133 -45.560604 14.581863 -20.248089 -23.396310 -40.579720 1.906593 -2.555549 2.819701 1.161950 -0.825760 1.141530 -0.337230 29.133939 26.775175 16.194576 49.287100 -16.406746 -25.501005 84.432759 70.511056 37.537601 2.690970 -1.010616 0.149570 0.025650 -0.216890 -0.389480 
-1.479510 16.928400 -2.338120 -5.755837 -5.823188 -8.050051 -15.928050 14.549440 2.544537 19.037283 -1.943671 -6.646560 6.945023 15.390557 73.744234 1.634917 12.670311 -0.238741 0.559520 0.604470 0.918670 17.631677 -8.431235 4.021672 -19.130964 11.471681 -34.428606 7.588593 -17.443716 69.459445 -2.269759 -10.676734 0.318205 0.111850 -0.963200 0.104610 -1.550995 -6.168654 -8.716433 -1.275775 3.995191 47.752957 5.338610 5.462018 0.475260 4.609909 8.025107 -20.534594 18.949882 -11.354421 89.832975 2.892500 4.455710 -24.352650 -37.659172 -27.009385 10.957248 -44.291731 11.928897 -18.160475 -23.632422 -37.344970 2.106835 -2.660803 2.863760 1.072460 -0.743150 1.060470 -0.311590 29.313602 26.276840 14.721022 48.468278 -13.344388 -24.572596 82.040434 69.232828 36.042659 2.629422 -1.147209 0.137480 0.021810 -0.204480 -0.368940 
-1.677970 16.850330 -2.151220 -6.397301 -10.948365 -8.887515 -15.833496 14.035352 2.846922 19.230280 -3.023841 -10.527743 9.180263 17.135000 84.970132 2.022950 14.236577 -0.657589 0.556310 0.607420 0.922720 17.792042 -8.372022 4.077268 -15.392273 12.685915 -35.798290 3.706064 -16.035559 73.879973 -2.372560 -11.055325 0.230097 0.133210 -0.951580 0.110060 -1.875014 -5.441354 -8.883861 0.739636 3.438474 48.564824 2.467604 5.890313 0.248357 4.928818 8.889325 -20.373155 19.692774 -11.188275 89.771011 0.405040 5.624430 -22.379860 -38.347564 -28.000386 10.328164 -40.398620 9.673776 -14.830235 -25.115150 -30.931236 2.119510 -2.701187 2.887780 1.024060 -0.698130 1.031290 -0.317130 29.186519 26.314657 14.351786 50.829486 -13.271173 -25.730762 87.899900 67.733421 38.295038 2.851111 -1.041772 0.134540 0.013210 -0.196540 -0.373710 
-1.837360 16.814100 -1.955290 -8.154236 -14.898748 -8.978504 -15.775952 13.744910 3.117793 19.618096 -3.917079 -13.198564 11.525052 17.705862 93.137444 2.262991 15.177177 -0.890616 0.544780 0.605070 0.932340 17.882536 -8.385176 3.990861 -11.052066 13.172522 -34.989962 0.273468 -14.470879 76.660760 -2.438395 -11.240607 0.196984 0.144940 -0.945100 0.119480 -2.075688 -5.027918 -8.958942 3.713349 2.093554 48.937595 -0.118333 6.154096 0.505469 5.680267 9.952848 -20.273013 22.317111 -12.529421 89.069184 -2.224600 6.840520 -20.943120 -39.669246 -28.687572 9.764961 -37.988446 7.398795 -13.177758 -26.355416 -28.058050 2.171125 -2.727211 2.923510 0.977790 -0.649500 1.008260 -0.331090 28.689367 26.217032 14.050712 51.661250 -12.527403 -26.086876 93.116732 65.986020 40.594594 2.961144 -1.016323 0.133720 0.000130 -0.186050 -0.383960 
-1.995380 16.884920 -1.785560 -8.243478 -20.172010 -9.817880 -15.764083 13.494182 3.534280 18.179757 -4.951176 -16.732653 12.682100 19.111482 100.321704 2.456867 16.049686 -1.108442 0.562790 0.634910 0.960170 17.908853 -8.501002 3.637331 -8.669074 12.503082 -32.010420 -1.167844 -12.898664 75.316796 -2.368153 -10.856721 0.297096 0.179450 -0.955080 0.122690 -2.110202 -4.757322 -8.957766 3.572709 2.769058 50.440550 -0.989622 7.530302 1.050388 5.929262 10.130398 -20.184917 22.955584 -13.039929 90.277129 -4.125170 8.120060 -21.283830 -40.174751 -29.208560 9.284239 -35.747776 5.739799 -12.984362 -29.370650 -29.025211 2.991932 -2.727393 2.950351 0.976120 -0.631450 1.013860 -0.340950 28.642706 27.182070 13.912152 51.034028 -11.096053 -25.930269 93.338772 64.586409 39.602069 2.891951 -1.081932 0.124050 0.011710 -0.182170 -0.402710 
-2.092260 16.968410 -1.547530 -8.450303 -25.089661 -10.503109 -15.781083 13.145276 4.159602 17.347869 -6.380204 -20.712371 11.134976 23.200821 105.505011 2.686558 17.082597 -1.345904 0.533290 0.602330 0.961030 17.911505 -8.592650 3.125275 -7.886270 10.875758 -28.802919 -2.015064 -12.053867 73.168909 -2.249709 -10.475648 0.394372 0.177960 -0.933140 0.129770 -2.082974 -4.594134 -9.015834 3.846067 2.735636 51.305399 -1.666710 8.236052 1.316909 6.494263 10.177738 -19.998934 23.589729 -13.525059 91.609599 -6.444500 9.566590 -19.418980 -41.297343 -29.110293 8.907324 -35.248357 5.030443 -13.697567 -29.221305 -31.283371 3.389971 -2.748352 2.987555 0.946580 -0.583130 0.985680 -0.361380 28.560896 27.610973 13.688900 49.143634 -10.333415 -25.202321 90.857039 61.894816 36.245678 2.757838 -1.209744 0.107110 0.012040 -0.153300 -0.416890 
